<svg viewBox="0 0 846.66 846.66" xml:space="preserve" xmlns="http://www.w3.org/2000/svg" shape-rendering="geometricPrecision" text-rendering="geometricPrecision" image-rendering="optimizeQuality" fill-rule="evenodd" clip-rule="evenodd"><path d="M517.8 699.82H126.98c-34.76 0-63.29-28.54-63.29-63.29V73.68c0-34.75 28.53-63.28 63.29-63.28H508.6c6.91.09 12.89 3.17 16.92 8.8l132.74 166.45c3.3 3.66 5.31 8.51 5.31 13.82v371.64h98.74c11.4 0 20.64 9.25 20.64 20.65v223.85c0 11.4-9.24 20.65-20.64 20.65H538.45c-11.41 0-20.65-9.25-20.65-20.65V699.82zm61.47 19.27c-16.74-21.29 15.67-46.78 32.42-25.48l18.97 24.15 58.4-74.26c16.75-21.29 49.16 4.2 32.42 25.49l-74.38 94.57c-8.11 10.69-24.25 11-32.66.3l-35.17-44.77zm43.01-147.98V220.12H508.6c-11.4 0-20.64-9.25-20.64-20.65V51.69H126.98c-12.15 0-22 9.85-22 21.99v562.85c0 12.15 9.85 22 22 22H517.8v-66.77c0-11.4 9.24-20.65 20.65-20.65h83.83zm119.38 41.29H559.09v182.57h182.57V612.4zM216.52 474.53c-27.15 0-27.15-41.29 0-41.29h302.74c27.16 0 27.16 41.29 0 41.29H216.52zm0 69.65c-27.15 0-27.15-41.3 0-41.3h302.74c27.16 0 27.16 41.3 0 41.3H216.52zm0-139.29c-27.15 0-27.15-41.29 0-41.29h302.74c27.16 0 27.16 41.29 0 41.29H216.52zm-8.53-294.29h168.43c11.4 0 20.65 9.24 20.65 20.64V314.6c0 11.4-9.25 20.64-20.65 20.64H207.99c-11.4 0-20.64-9.24-20.64-20.64V131.24c0-11.4 9.24-20.64 20.64-20.64zm147.79 41.29H228.64v142.06h127.14V151.89zm244.32 26.94-70.85-88.85v88.85h70.85z" fill="#8390fa" fill-rule="nonzero" class="fill-000000"></path></svg>