<?xml version="1.0" standalone="no"?><svg xmlns:xlink="http://www.w3.org/1999/xlink" xmlns="http://www.w3.org/2000/svg" viewBox="0 0 1000 599.9848738383581" preserveAspectRatio="xMaxYMax slice"><g transform="scale(1.890770205243106)"><rect x="0" y="0" width="528.8883333333333" height="317.33299999999997" fill="#ffffff"/><rect x="0" y="0" width="52.89" height="52.89" fill="#ff3b69"/><polygon points="52.89,0 52.89,52.89 0,52.89" fill="#7d93ee"/><rect x="52.89" y="0" width="52.89" height="52.89" fill="#97a8f1"/><polygon points="105.78,0 105.78,52.89 52.89,52.89" fill="#fbfbfe"/><rect x="105.78" y="0" width="52.89" height="52.89" fill="#ff5981"/><polygon points="158.67000000000002,0 158.67000000000002,52.89 105.78,52.89" fill="#ff3e6c"/><rect x="158.67" y="0" width="52.89" height="52.89" fill="#ffd8e1"/><rect x="158.67" y="0" width="52.89" height="52.89" fill="#ff4773"/><rect x="211.56" y="0" width="52.89" height="52.89" fill="#3255e4"/><path d="M 211.56 0 A 52.89 52.89 0 0 0 264.45 52.89 L 264.45 0" fill="#ff668a"/><rect x="264.44" y="0" width="52.89" height="52.89" fill="#ff8ea9"/><rect x="264.44" y="0" width="52.89" height="52.89" fill="#617ceb"/><rect x="317.33" y="0" width="52.89" height="52.89" fill="#6882eb"/><polygon points="370.21999999999997,0 370.21999999999997,52.89 317.33,52.89" fill="#6881eb"/><rect x="370.22" y="0" width="52.89" height="52.89" fill="#ff557d"/><rect x="370.22" y="0" width="52.89" height="52.89" fill="#ff92ac"/><rect x="423.11" y="0" width="52.89" height="52.89" fill="#ff94ad"/><rect x="423.11" y="0" width="52.89" height="52.89" fill="#e2e7fb"/><rect x="476" y="0" width="52.89" height="52.89" fill="#ff4d77"/><path d="M 476 0 A 52.89 52.89 0 0 0 528.89 52.89 L 528.89 0" fill="#3456e5"/><rect x="0" y="52.89" width="52.89" height="52.89" fill="#ff3867"/><rect x="0" y="52.89" width="52.89" height="52.89" fill="#ffd4de"/><rect x="52.89" y="52.89" width="52.89" height="52.89" fill="#ff3a68"/><polygon points="52.89,52.89 105.78,52.89 52.89,105.78" fill="#94a6f1"/><rect x="105.78" y="52.89" width="52.89" height="52.89" fill="#ff7596"/><path d="M 105.78 52.89 A 52.89 52.89 0 0 0 158.67000000000002 105.78 L 158.67000000000002 52.89" fill="#e4e8fb"/><rect x="158.67" y="52.89" width="52.89" height="52.89" fill="#e5e9fc"/><rect x="158.67" y="52.89" width="52.89" height="52.89" fill="#97a8f1"/><rect x="211.56" y="52.89" width="52.89" height="52.89" fill="#ffeff3"/><path d="M 211.56 105.78 A 52.89 52.89 0 0 1  264.45 52.89 L 264.45 105.78" fill="#9eaff2"/><rect x="264.44" y="52.89" width="52.89" height="52.89" fill="#ffeaef"/><rect x="264.44" y="52.89" width="52.89" height="52.89" fill="#8095ee"/><rect x="317.33" y="52.89" width="52.89" height="52.89" fill="#3f60e6"/><path d="M 317.33 52.89 A 52.89 52.89 0 0 1  370.21999999999997 105.78 L 317.33 52.89 A 52.89 52.89 0 0 0 370.21999999999997 105.78" fill="#3e5fe6"/><rect x="370.22" y="52.89" width="52.89" height="52.89" fill="#ff6489"/><path d="M 370.22 52.89 A 52.89 52.89 0 0 0 423.11 105.78 L 423.11 52.89" fill="#ffa5ba"/><rect x="423.11" y="52.89" width="52.89" height="52.89" fill="#ff426f"/><polygon points="423.11,52.89 476,52.89 476,105.78" fill="#274be3"/><rect x="476" y="52.89" width="52.89" height="52.89" fill="#617cea"/><rect x="476" y="52.89" width="52.89" height="52.89" fill="#ff96af"/><rect x="0" y="105.78" width="52.89" height="52.89" fill="#ffdce5"/><polygon points="0,105.78 52.89,158.67000000000002 0,158.67000000000002" fill="#ff537c"/><rect x="52.89" y="105.78" width="52.89" height="52.89" fill="#b5c2f5"/><path d="M 52.89 105.78 A 52.89 52.89 0 0 0 105.78 158.67000000000002 L 105.78 105.78" fill="#eef1fd"/><rect x="105.78" y="105.78" width="52.89" height="52.89" fill="#fffefe"/><rect x="105.78" y="105.78" width="52.89" height="52.89" fill="#d7defa"/><rect x="158.67" y="105.78" width="52.89" height="52.89" fill="#c5cef7"/><rect x="158.67" y="105.78" width="52.89" height="52.89" fill="#8a9ef0"/><rect x="211.56" y="105.78" width="52.89" height="52.89" fill="#ff93ac"/><polygon points="211.56,105.78 264.45,105.78 211.56,158.67000000000002" fill="#7d93ee"/><rect x="264.44" y="105.78" width="52.89" height="52.89" fill="#274ce3"/><polygon points="264.44,105.78 317.33,105.78 317.33,158.67000000000002" fill="#ff6e91"/><rect x="317.33" y="105.78" width="52.89" height="52.89" fill="#e9edfc"/><polygon points="317.33,105.78 370.21999999999997,105.78 317.33,158.67000000000002" fill="#ffb0c3"/><rect x="370.22" y="105.78" width="52.89" height="52.89" fill="#ff4672"/><polygon points="370.22,105.78 423.11,105.78 370.22,158.67000000000002" fill="#2248e2"/><rect x="423.11" y="105.78" width="52.89" height="52.89" fill="#ff9db4"/><polygon points="423.11,105.78 476,158.67000000000002 423.11,158.67000000000002" fill="#ff4773"/><rect x="476" y="105.78" width="52.89" height="52.89" fill="#ff8ba7"/><rect x="476" y="105.78" width="52.89" height="52.89" fill="#fff7f9"/><rect x="0" y="158.67" width="52.89" height="52.89" fill="#ffc3d1"/><rect x="0" y="158.67" width="52.89" height="52.89" fill="#4766e7"/><rect x="52.89" y="158.67" width="52.89" height="52.89" fill="#cdd5f9"/><path d="M 52.89 158.67 A 52.89 52.89 0 0 1  105.78 211.56 L 52.89 158.67 A 52.89 52.89 0 0 0 105.78 211.56" fill="#2146e2"/><rect x="105.78" y="158.67" width="52.89" height="52.89" fill="#ff7495"/><polygon points="158.67000000000002,158.67 158.67000000000002,211.56 105.78,211.56" fill="#5975e9"/><rect x="158.67" y="158.67" width="52.89" height="52.89" fill="#c6d0f8"/><rect x="158.67" y="158.67" width="52.89" height="52.89" fill="#ffe7ed"/><rect x="211.56" y="158.67" width="52.89" height="52.89" fill="#4b69e8"/><rect x="211.56" y="158.67" width="52.89" height="52.89" fill="#9eaef2"/><rect x="264.44" y="158.67" width="52.89" height="52.89" fill="#ffe5eb"/><rect x="264.44" y="158.67" width="52.89" height="52.89" fill="#ff8faa"/><rect x="317.33" y="158.67" width="52.89" height="52.89" fill="#4d6be8"/><rect x="317.33" y="158.67" width="52.89" height="52.89" fill="#ff9fb6"/><rect x="370.22" y="158.67" width="52.89" height="52.89" fill="#4867e7"/><polygon points="370.22,158.67 423.11,158.67 370.22,211.56" fill="#5975e9"/><rect x="423.11" y="158.67" width="52.89" height="52.89" fill="#f6f8fe"/><path d="M 423.11 158.67 A 52.89 52.89 0 0 1  476 211.56 L 423.11 158.67 A 52.89 52.89 0 0 0 476 211.56" fill="#ff819f"/><rect x="476" y="158.67" width="52.89" height="52.89" fill="#ff3b6a"/><rect x="476" y="158.67" width="52.89" height="52.89" fill="#a3b2f3"/><rect x="0" y="211.56" width="52.89" height="52.89" fill="#d1d9f9"/><polygon points="0,211.56 52.89,211.56 52.89,264.45" fill="#f4f6fe"/><rect x="52.89" y="211.56" width="52.89" height="52.89" fill="#a0b0f3"/><path d="M 52.89 264.45 A 52.89 52.89 0 0 1  105.78 211.56 L 105.78 264.45" fill="#3a5be5"/><rect x="105.78" y="211.56" width="52.89" height="52.89" fill="#b1bef5"/><rect x="105.78" y="211.56" width="52.89" height="52.89" fill="#3c5de6"/><rect x="158.67" y="211.56" width="52.89" height="52.89" fill="#3a5be5"/><path d="M 158.67 211.56 A 52.89 52.89 0 0 0 211.56 264.45 L 211.56 211.56" fill="#4a68e7"/><rect x="211.56" y="211.56" width="52.89" height="52.89" fill="#c1cbf7"/><path d="M 211.56 264.45 A 52.89 52.89 0 0 0 264.45 211.56 L 211.56 211.56" fill="#ffb4c6"/><rect x="264.44" y="211.56" width="52.89" height="52.89" fill="#bfc9f7"/><polygon points="264.44,211.56 317.33,211.56 264.44,264.45" fill="#fefeff"/><rect x="317.33" y="211.56" width="52.89" height="52.89" fill="#6982eb"/><polygon points="370.21999999999997,211.56 370.21999999999997,264.45 317.33,264.45" fill="#ffd9e2"/><rect x="370.22" y="211.56" width="52.89" height="52.89" fill="#d1d9f9"/><polygon points="370.22,211.56 423.11,264.45 370.22,264.45" fill="#8196ef"/><rect x="423.11" y="211.56" width="52.89" height="52.89" fill="#ff5f85"/><path d="M 423.11 211.56 A 52.89 52.89 0 0 0 476 264.45 L 476 211.56" fill="#d5dcf9"/><rect x="476" y="211.56" width="52.89" height="52.89" fill="#ff6489"/><path d="M 476 264.45 A 52.89 52.89 0 0 0 528.89 211.56 L 476 211.56" fill="#ffdae3"/><rect x="0" y="264.44" width="52.89" height="52.89" fill="#ff91ab"/><rect x="0" y="264.44" width="52.89" height="52.89" fill="#b0bdf5"/><rect x="52.89" y="264.44" width="52.89" height="52.89" fill="#7990ee"/><rect x="52.89" y="264.44" width="52.89" height="52.89" fill="#fff4f7"/><rect x="105.78" y="264.44" width="52.89" height="52.89" fill="#fff5f7"/><rect x="105.78" y="264.44" width="52.89" height="52.89" fill="#ff698d"/><rect x="158.67" y="264.44" width="52.89" height="52.89" fill="#617cea"/><path d="M 158.67 317.33 A 52.89 52.89 0 0 1  211.56 264.44 L 158.67 317.33 A 52.89 52.89 0 0 0 211.56 264.44" fill="#7f95ee"/><rect x="211.56" y="264.44" width="52.89" height="52.89" fill="#c1ccf7"/><polygon points="211.56,264.44 264.45,264.44 211.56,317.33" fill="#ff5980"/><rect x="264.44" y="264.44" width="52.89" height="52.89" fill="#5975e9"/><rect x="264.44" y="264.44" width="52.89" height="52.89" fill="#fff0f3"/><rect x="317.33" y="264.44" width="52.89" height="52.89" fill="#3d5ee6"/><rect x="317.33" y="264.44" width="52.89" height="52.89" fill="#7f95ee"/><rect x="370.22" y="264.44" width="52.89" height="52.89" fill="#eef1fd"/><rect x="370.22" y="264.44" width="52.89" height="52.89" fill="#ff6f91"/><rect x="423.11" y="264.44" width="52.89" height="52.89" fill="#4161e6"/><polygon points="476,264.44 476,317.33 423.11,317.33" fill="#ff6b8e"/><rect x="476" y="264.44" width="52.89" height="52.89" fill="#b8c4f6"/><rect x="476" y="264.44" width="52.89" height="52.89" fill="#889cf0"/></g></svg>