<svg xmlns="http://www.w3.org/2000/svg" version="1.1" xmlns:xlink="http://www.w3.org/1999/xlink" xmlns:svgjs="http://svgjs.dev/svgjs" width="1400" height="560" preserveAspectRatio="none" viewBox="0 0 1400 560"><g mask="url(&quot;#SvgjsMask1010&quot;)" fill="none"><rect width="1400" height="560" x="0" y="0" fill="rgba(28, 32, 66, 1)"></rect><circle r="7.755" cx="620.725" cy="269.175" filter="url(#SvgjsFilter1011)" fill="rgba(51, 121, 194, 0.58)"></circle><circle r="8.605" cx="1130.275" cy="18.305" filter="url(#SvgjsFilter1011)" fill="rgba(51, 121, 194, 0.58)"></circle><circle r="6.34" cx="934.6600000000001" cy="154.87" filter="url(#SvgjsFilter1011)" fill="rgba(51, 121, 194, 0.58)"></circle><circle r="9.245" cx="873.505" cy="393.46500000000003" filter="url(#SvgjsFilter1011)" fill="rgba(51, 121, 194, 0.58)"></circle><circle r="7.59" cx="301.31" cy="107.99000000000001" filter="url(#SvgjsFilter1011)" fill="rgba(51, 121, 194, 0.58)"></circle><circle r="5.17" cx="1199.68" cy="476.08000000000004" filter="url(#SvgjsFilter1011)" fill="rgba(51, 121, 194, 0.58)"></circle><circle r="4.87" cx="906.91" cy="413.61" filter="url(#SvgjsFilter1011)" fill="rgba(51, 121, 194, 0.58)"></circle><circle r="6.19" cx="198.29" cy="84.11" filter="url(#SvgjsFilter1011)" fill="rgba(51, 121, 194, 0.58)"></circle><circle r="8.02" cx="590.0699999999999" cy="304" filter="url(#SvgjsFilter1011)" fill="rgba(51, 121, 194, 0.58)"></circle><circle r="6.035" cx="833.165" cy="406.355" filter="url(#SvgjsFilter1011)" fill="rgba(51, 121, 194, 0.58)"></circle><circle r="8.35" cx="1301.1799999999998" cy="55.1" filter="url(#SvgjsFilter1011)" fill="rgba(51, 121, 194, 0.58)"></circle><circle r="5.315" cx="579.1850000000001" cy="474.125" filter="url(#SvgjsFilter1011)" fill="rgba(51, 121, 194, 0.58)"></circle><circle r="8.245" cx="783.765" cy="192.335" filter="url(#SvgjsFilter1011)" fill="rgba(51, 121, 194, 0.58)"></circle><circle r="7.45" cx="163" cy="339.27" filter="url(#SvgjsFilter1011)" fill="rgba(51, 121, 194, 0.58)"></circle><circle r="8.995" cx="1167.3649999999998" cy="138.215" filter="url(#SvgjsFilter1011)" fill="rgba(51, 121, 194, 0.58)"></circle><circle r="6.585" cx="903.575" cy="505.005" filter="url(#SvgjsFilter1011)" fill="rgba(51, 121, 194, 0.58)"></circle><circle r="8.13" cx="585.29" cy="440.14" filter="url(#SvgjsFilter1011)" fill="rgba(51, 121, 194, 0.58)"></circle><circle r="4.69" cx="1323.06" cy="384.78" filter="url(#SvgjsFilter1011)" fill="rgba(51, 121, 194, 0.58)"></circle><circle r="5.93" cx="907.8399999999999" cy="390.24" filter="url(#SvgjsFilter1011)" fill="rgba(51, 121, 194, 0.58)"></circle><circle r="6.755" cx="655.915" cy="55.905" filter="url(#SvgjsFilter1011)" fill="rgba(51, 121, 194, 0.58)"></circle><path d="M437.7 259.1L436.8 278.6 425.5 272C424.3 271.2 422.4 271.5 421 272.9 420.5 274.6 420.9 276.5 422 277.3L436.7 286.4 435.8 304.5 406.1 285.8C404.1 284.8 402.1 285.1 401.6 286.8 400.3 288.2 400.6 290.1 402.6 291.2L435.4 311.8 435 328.2 401.5 346.1 389 338.6 391 297.3C390.7 296.8 390.5 296.2 390.2 295.7 389.9 295.1 388.7 294.3 387.9 294.1 385.7 293.8 384.3 295.3 384.6 297.2L382.8 334.8 367.8 325.2 368.2 306C368.7 305.7 368.4 305.1 368.1 304.6 367.5 303.5 366.4 302.7 365 302.7 363.6 302.8 362.3 304.2 361.8 305.9L361.6 321.5 342.6 309.7C341.5 308.9 339.6 309.2 338.2 310.6 337.7 312.3 338 314.3 339.2 315.1L357 326 345.4 332.2C343.8 333 343.6 335.3 344.2 336.4 345 338 347 339.1 348.7 338.2L363.5 330.3 378.5 340 347.7 356.3C346.1 357.2 345.6 358.9 346.4 360.5 347.3 362.2 349 362.7 350.6 361.8L384.7 343.7 398 351.4 396.4 389.6 383.8 396.3 350.2 375.5C348.7 374.1 346.2 374.7 345.7 376.4 344.4 377.8 345.2 379.5 346.7 380.9L377.2 399.8 361.3 408.3 346.3 398.7C345.2 397.9 342.7 398.5 341.9 399.6S341.7 403.2 343.1 404.6L354.7 411.8 335.5 422.1C333.8 422.9 333.6 425.2 334.5 426.8 335.1 427.9 337 429 338.7 428.1L357.9 417.9 357.7 432.1C357.8 433.5 358.6 435.1 360.9 435.3 362.3 435.3 364.2 433.6 364.1 432.2L364.5 414.4 380.4 405.9 379.1 441.8C379.4 443.8 380.3 445.4 382.6 445.6 384 445.6 385.9 443.9 385.8 442.5L387 402.4 399.7 395.7 432.2 415.7 431.2 431 397.1 449.2C395.5 450 395 451.7 395.8 453.4 396.7 455 398.7 456.1 400.3 455.2L431.1 438.8 430.7 456.7 415.9 464.5C414.2 465.4 413.7 467.1 414.6 468.8 415.5 470.4 417.2 470.9 418.8 470L430.3 463.9 429.5 484.8C429.5 486.2 431.2 488.1 432.6 488.1 434.6 487.7 436.2 486.9 435.9 484.9L437 463.2 449.7 471.2C451.4 471.7 453.4 471.4 454.2 470.3 455 469.1 454.9 467.7 454.4 466.6 454.4 466.6 454.1 466.1 453.2 465.8L437.1 455.4 437.5 437.6 469.7 457.1C471.1 458.4 473.1 458.1 474.1 456.1 474.4 455.3 474.6 454.4 474.1 453.3 473.8 452.8 473.5 452.2 473.2 451.7L437.8 430.3 438.6 415.8 472.1 398 486 406.8 484.7 445.5C484.5 447.8 485.9 449.1 487.9 448.8 489.5 449.3 490.9 447.9 491.1 445.7L492.2 410.6 507.7 419.9 507 437.2C507.1 438.6 508.5 439.9 510.2 440.4 512.1 440.1 513.8 439.2 513.5 437.3L514.2 424.2 530.9 434.3C532.3 435.7 534 434.8 535.3 433.4 535.6 432.6 535.6 431.2 535 430.1 535 430.1 534.7 429.5 534.4 429L516.6 418 530.3 410.7C531.4 410.1 532.5 408.1 531.6 406.5 530.7 404.8 528.5 404.6 527.4 405.2L510.4 414.3 494.8 404.9 528.3 387.1C530 386.2 530.2 384 529.3 382.3S526.8 380.2 525.1 381.1L488.3 400.6 475.6 392.6 477.1 354.4 491.4 346.8 525.3 368.2C527 368.8 529 368.4 530.3 367 530.6 366.2 530.5 364.8 530 363.7 529.7 363.1 529.4 362.6 528.5 362.3L498 343.3 513.9 334.9 529.5 344.2C530.6 345 532.5 344.7 533.9 343.3 534.4 341.6 534.1 339.6 532.9 338.8L520.5 331.3 538.1 322C539.2 321.4 540 318.9 539.4 317.8 538.5 316.1 536 315.4 534.9 315.9L517.3 325.3 518.3 311.4C518 310.8 517.7 310.3 517.4 309.7 516.9 308.6 515.7 307.8 514.9 307.5 512.9 307.9 511.6 309.3 511.1 311L510.7 328.8 494.8 337.3 496.1 301.3C496.3 299.1 494.9 297.8 493.5 297.8 491.3 297.6 489.9 299 489.4 300.7L488.2 340.8 473.9 348.4 441.4 328.3 441.8 313.3 478.6 293.7C480.3 292.8 480.8 291.2 479.9 289.5 479 287.9 477.4 287.3 475.7 288.2L442.2 306.1 443.1 287.9 460.2 278.9C461.3 278.3 462 275.8 461.2 274.1 460.3 272.5 458 272.2 456.9 272.8L443.2 280.1 444.1 259.2C443.8 258.7 443.8 258.7 443.5 258.1 442.9 257 441.8 256.2 440.9 256 439 256.3 437.6 257.7 437.7 259.1ZM467.3 351.9L470.7 354.3 470.5 357.9 469.4 388.9 469.2 392.5 465.9 394.2 439 408.6 435.7 410.3 432.6 408.5 406.3 392.1 403.1 390.3 403 386.1 404.5 355.7 404.4 351.6 407.7 349.8 434.6 335.5 437.9 333.7 441.3 336.1 467.3 351.9Z" fill="rgba(51, 121, 194, 0.58)"></path><path d="M839.3 548.1L858.5 544.4 854.6 556.9C854.1 558.2 854.9 560 856.6 561 858.3 561.1 860.1 560.3 860.7 559.1L866.1 542.6 883.9 539.3 872.6 572.6C872.1 574.7 872.8 576.5 874.6 576.6 876.3 577.6 878.1 576.9 878.7 574.7L891 538 907.1 534.5 932.3 563 927.9 576.8 887.3 584.5C886.9 584.9 886.4 585.3 885.9 585.7 885.5 586.1 885 587.4 884.9 588.3 885.2 590.5 886.9 591.5 888.7 590.7L925.7 583.7 919.9 600.5 901.1 604.7C900.7 604.2 900.2 604.6 899.7 605.1 898.8 605.9 898.3 607.2 898.7 608.5 899 609.9 900.7 610.8 902.5 611L917.7 607.5 910.7 628.6C910.1 629.9 910.9 631.7 912.6 632.7 914.4 632.8 916.2 632.1 916.7 630.8L923.2 610.9 931.9 620.7C933.1 622.1 935.3 621.8 936.3 620.9 937.7 619.7 938.2 617.5 937 616.1L925.8 603.6 931.7 586.7 954.8 612.8C956.1 614.2 957.8 614.3 959.2 613.1 960.6 611.8 960.7 610.1 959.5 608.7L933.9 579.8 938.3 565.1 975.8 557.7 985.3 568.4 972.9 606C971.9 607.7 973.1 609.9 974.8 610.1 976.5 611 977.9 609.8 978.9 608.1L990.2 574 1002.2 587.5 996.3 604.3C995.8 605.6 997 607.9 998.3 608.4S1001.8 607.7 1002.8 606L1007.1 593.1 1021.6 609.4C1022.8 610.8 1025 610.5 1026.4 609.2 1027.4 608.4 1027.9 606.2 1026.7 604.8L1012.3 588.5 1026.1 585.4C1027.5 585 1028.9 583.8 1028.6 581.6 1028.2 580.2 1026.1 578.8 1024.7 579.1L1007.3 582.9 995.4 569.4 1030.6 562.3C1032.4 561.5 1033.8 560.3 1033.5 558.1 1033.2 556.7 1031 555.3 1029.7 555.6L990.4 563.8 980.9 553.1 992.8 516.8 1008 514.2 1033.5 543.1C1034.8 544.5 1036.5 544.6 1037.9 543.4 1039.3 542.1 1039.9 539.9 1038.7 538.5L1015.6 512.5 1033 508.7 1044.1 521.2C1045.4 522.6 1047.1 522.8 1048.5 521.5 1049.9 520.3 1050 518.5 1048.8 517.1L1040.1 507.3 1060.6 503.3C1062 502.9 1063.4 500.8 1063.1 499.5 1062.3 497.7 1061.1 496.3 1059.3 497L1037.9 501 1042.7 486.8C1042.8 485 1042 483.2 1040.7 482.7 1039.4 482.2 1038.1 482.5 1037.2 483.4 1037.2 483.4 1036.7 483.8 1036.6 484.6L1030.3 502.8 1012.8 506.6 1024.3 470.7C1025.3 469 1024.5 467.2 1022.3 466.6 1021.4 466.5 1020.6 466.5 1019.6 467.3 1019.2 467.7 1018.7 468.1 1018.2 468.5L1005.7 507.9 991.4 510.6 966.3 482.1 971.6 466.6 1009.6 458.8C1011.8 458.5 1012.8 456.8 1012 454.9 1012.1 453.2 1010.4 452.2 1008.2 452.5L973.8 459.7 979.3 442.4 996.2 439C997.6 438.6 998.5 436.9 998.6 435.2 997.9 433.4 996.6 432 994.8 432.7L981.9 435 987.9 416.5C988.9 414.8 987.6 413.4 985.9 412.4 985 412.3 983.7 412.7 982.8 413.5 982.8 413.5 982.3 413.9 981.8 414.3L975.3 434.2 965 422.6C964.2 421.6 962 421.1 960.6 422.3 959.2 423.5 959.5 425.8 960.4 426.7L973.2 441.1 967.7 458.4 942.5 430C941.3 428.6 939.1 428.9 937.7 430.2S936.2 433.2 937.4 434.6L965.1 465.8 960.2 480 922.7 487.4 912 475.3 924.9 437.3C925 435.6 924.2 433.8 922.5 432.8 921.7 432.7 920.3 433.1 919.4 433.9 918.9 434.3 918.5 434.7 918.4 435.6L907.1 469.7 895.1 456.2 900.6 438.9C901.1 437.6 900.3 435.8 898.6 434.8 896.9 434.7 895 435.5 894.5 436.8L890.2 450.6 877 435.7C876.1 434.8 873.5 434.6 872.6 435.5 871.2 436.7 871 439.3 871.8 440.3L885 455.2 871.2 457.4C870.8 457.8 870.3 458.3 869.8 458.7 868.9 459.5 868.4 460.8 868.3 461.7 869.1 463.5 870.8 464.5 872.6 464.6L890 460.8 901.9 474.3 866.7 481.4C864.5 481.7 863.5 483.4 863.8 484.8 864.2 487 865.9 488 867.6 488.1L906.9 479.9 917.6 492 905.7 528.3 891 531.4 863.4 500.1C862.1 498.8 860.4 498.6 859 499.9 857.6 501.1 857.5 502.9 858.7 504.3L883.9 532.7 866 536 853.2 521.6C852.4 520.6 849.8 520.5 848.4 521.7 847 523 847.3 525.2 848.1 526.1L858.4 537.8 837.9 541.8C837.4 542.2 837.4 542.2 837 542.6 836 543.5 835.5 544.7 835.5 545.6 836.2 547.4 837.9 548.4 839.3 548.1ZM922.6 497.6L924.1 493.7 927.7 493 958 486.9 961.6 486.3 964.1 489.1 984.3 511.9 986.8 514.7 985.7 518.1 976 547.5 974.9 551 970.8 552.1 941 557.7 936.9 558.8 934.5 556 914.2 533.2 911.8 530.4 913.3 526.5 922.6 497.6Z" fill="rgba(51, 121, 194, 0.58)"></path><path d="M1149.5 307.4L1138.7 308.7 1141 302.5C1141.3 301.9 1141 301 1140.2 300.4 1139.3 300.3 1138.4 300.6 1138.3 301.5L1135.1 309.1 1126.7 310.4 1133.4 294.6C1133.5 293.8 1133.2 292.8 1132.6 292.5 1131.5 292.2 1130.6 292.5 1130.5 293.4L1123.1 310.8 1110.2 312.5 1117.5 299.4 1103 303.1 1107.9 291.1 1126.7 288.4C1126.9 288.7 1127.1 288.5 1127.4 288.3 1127.9 287.9 1128.2 287.3 1128 286.6 1127.9 285.9 1127.1 285.4 1126.2 285.3L1109.2 287.7 1112.7 279.9 1120.8 278.8C1121.3 278.9 1121.5 278.7 1121.8 278.5 1122 278.3 1122.3 277.7 1122.2 277 1122.1 276.3 1121.2 275.7 1120.6 275.9L1114 276.6 1118 266.4C1118.6 265.6 1118 264.9 1117.2 264.3 1116.6 264 1115.6 264.4 1115.3 265.4L1111.1 275.3 1107.1 270.1C1106.6 269.4 1105.4 269.4 1104.9 269.8 1104.2 270.4 1104.1 271.3 1104.7 272L1109.8 278.7 1106.3 286.4 1096.1 273.1C1095.5 272.4 1094.6 272.2 1093.9 272.8 1093.4 273.2 1093 274.3 1093.6 275L1105 289.8 1100.1 301.8 1092.4 289.3 1088.3 303.4 1080.4 293 1087.5 275.7C1087.9 274.7 1087.3 273.9 1086.7 273.6 1086.1 273.3 1085.1 273.7 1084.6 274.5L1078.3 290.3 1073.2 283.6 1076.2 275.8C1076.7 275 1076.4 274.1 1075.4 273.7 1074.7 273.4 1073.8 273.7 1073.4 274.8L1070.9 280.7 1064.3 272C1063.7 271.3 1062.8 271.2 1062.1 271.7S1061.2 273.2 1061.8 273.9L1068.4 282.6 1062.1 283.5C1061 283.6 1060.4 284.4 1060.6 285.1 1060.6 286.2 1061.4 286.7 1062.4 286.4L1070.7 285.5 1075.8 292.2 1058.9 294.2C1058 294.5 1057.4 295.3 1057.6 296 1057.6 297.1 1058.5 297.7 1059.4 297.3L1077.9 294.9 1085.9 305.3 1071.2 305.6 1081.3 316.2 1068.5 317.8 1057.1 303C1056.5 302.3 1055.4 302.4 1054.9 302.7 1054.2 303.3 1054.1 304.2 1054.6 304.9L1065 318.5 1056.5 319.6 1051.3 312.9C1050.8 312.2 1049.9 312.1 1049.2 312.6 1048.7 313 1048.3 314.1 1048.9 314.8L1052.9 320 1042.2 321.5C1041.1 321.6 1040.6 322.4 1040.9 323.3 1041 324 1041.6 324.7 1042.5 324.4L1053.3 323.2 1051 329.3C1050.7 329.9 1051 330.9 1051.6 331.2 1052.2 331.5 1052.9 331.3 1053.2 331.1 1053.4 331 1053.7 330.8 1053.7 330.3L1056.9 322.8 1065.3 321.4 1058.6 337.2C1058.5 338 1058.8 339 1059.4 339.3 1060 339.6 1060.7 339.5 1061.2 339.1 1061.5 338.9 1061.5 338.9 1061.5 338.5L1068.9 321 1081.8 319.4 1074.5 332.4 1089 328.7 1084.1 340.8 1065.3 343.4C1064.6 343.5 1063.9 344.1 1064 345.2 1064.1 345.9 1064.9 346.4 1065.8 346.6L1082.7 344.1 1079.3 351.9 1071.1 353C1070.3 352.9 1069.7 353.7 1069.8 354.8 1069.9 355.5 1070.7 356.1 1071.6 356.2L1078 355.3 1074 365.4C1073.4 366.2 1074 366.9 1074.8 367.5 1075.2 367.5 1075.9 367.4 1076.2 367.2 1076.4 367 1076.7 366.8 1076.7 366.4L1080.9 356.5 1084.9 361.7C1085.4 362.5 1086.6 362.4 1087.1 362L1087.1 362C1087.8 361.4 1087.9 360.6 1087.3 359.8L1082.2 353.2 1085.7 345.4 1095.9 358.7C1096.5 359.5 1097.4 359.6 1098.1 359S1099 357.6 1098.4 356.8L1087 342 1091.9 330 1099.6 342.6 1103.7 328.5 1111.6 338.8 1104.5 356.1C1104.1 357.1 1104.7 357.9 1105.3 358.2 1105.9 358.5 1106.9 358.2 1107.4 357.4L1113.9 341.8 1118.8 348.2 1115.8 356C1115.2 356.8 1115.6 357.8 1116.6 358.1 1117.3 358.4 1118.2 358.1 1118.7 357.3L1121.1 351.2 1127.7 359.8C1128.3 360.5 1129.2 360.7 1129.9 360.1S1130.8 358.6 1130.2 357.9L1123.6 349.3 1129.9 348.3C1130.3 348.4 1130.6 348.2 1130.8 348 1131.3 347.6 1131.4 347.2 1131.4 346.8 1131.4 345.6 1130.5 345.1 1129.6 345.4L1121.3 346.3 1116.2 339.6 1133.1 337.7C1133.3 337.5 1133.6 337.3 1133.8 337.1 1134.3 336.7 1134.4 336.3 1134.4 335.8 1134.4 334.7 1133.5 334.2 1132.6 334.5L1114.1 336.9 1106.1 326.6 1120.8 326.3 1110.7 315.6 1123.5 314 1134.9 328.8C1135.5 329.5 1136.6 329.5 1137.1 329.1 1137.8 328.5 1137.9 327.6 1137.4 326.9L1127.1 313.6 1135.5 312.2 1140.6 318.9C1141.2 319.6 1142.1 319.8 1142.8 319.2S1143.7 317.7 1143.1 317L1139.1 311.8 1149.8 310.3C1150.2 310.4 1150.4 310.2 1150.7 310 1150.9 309.8 1151.2 309.2 1151.1 308.5 1151 307.8 1150.4 307.1 1149.5 307.4ZM1113.9 323.4L1101.9 323.6 1098.6 335.1 1092.2 324.7 1080.7 327.7 1086.3 317.1 1078.1 308.5 1090.1 308.3 1093.4 296.7 1099.6 306.9 1111.3 304.2 1105.5 314.5 1113.9 323.4Z" fill="rgba(51, 121, 194, 0.58)"></path><path d="M569.2 450.5L580.8 446.9 579.3 454.9C579.1 455.8 579.7 456.8 580.8 457.3 581.9 457.3 583 456.7 583.2 455.8L585.4 445.3 596.3 442 591.6 463.4C591.4 464.8 592 465.9 593.1 465.8 594.2 466.3 595.3 465.7 595.5 464.3L600.6 440.6 610.4 437.4 627.9 453.3 626.2 462.2 601.5 469.8C601.3 470.1 601 470.4 600.7 470.6 600.5 470.9 600.2 471.8 600.3 472.3 600.6 473.7 601.7 474.2 602.8 473.6L625.3 466.7 622.8 477.5 611.5 481.4C611.2 481.1 610.9 481.4 610.7 481.7 610.1 482.3 609.9 483.1 610.2 483.9 610.5 484.7 611.7 485.2 612.8 485.2L622 482 619.1 495.6C618.8 496.4 619.4 497.5 620.6 498 621.7 498 622.7 497.4 623 496.5L625.6 483.7 631.7 489.2C632.5 490 633.9 489.6 634.4 489.1 635.2 488.2 635.4 486.8 634.5 486L626.8 479 629.2 468.1 645.4 482.7C646.3 483.5 647.4 483.4 648.1 482.6 648.9 481.7 648.9 480.6 648 479.8L630.1 463.7 631.8 454.2 654.6 447 661.2 453 656.1 477.2C655.6 478.3 656.5 479.7 657.6 479.6 658.8 480.1 659.5 479.3 660 478.1L664.7 456.1 673.1 463.7 670.6 474.6C670.4 475.4 671.3 476.7 672.1 477S674.3 476.3 674.8 475.2L676.5 466.8 686.6 476C687.5 476.7 688.9 476.4 689.6 475.5 690.2 475 690.4 473.6 689.5 472.8L679.4 463.7 687.8 460.8C688.6 460.4 689.4 459.6 689 458.2 688.7 457.4 687.3 456.7 686.5 457L675.9 460.5 667.6 453 689 446.1C690.1 445.5 690.8 444.6 690.5 443.3 690.2 442.5 688.8 441.7 688 442L664.1 449.8 657.5 443.8 662.4 420.5 671.6 417.8 689.5 434C690.3 434.8 691.4 434.7 692.2 433.8 693 433 693.2 431.6 692.3 430.8L676.2 416.2 686.7 412.6 694.5 419.7C695.4 420.5 696.5 420.4 697.3 419.5 698.1 418.7 698 417.6 697.1 416.8L691.1 411.3 703.6 407.4C704.4 407.1 705.1 405.6 704.8 404.8 704.2 403.8 703.3 403 702.3 403.6L689.2 407.5 691.3 398.4C691.2 397.3 690.6 396.2 689.8 396 688.9 395.7 688.1 396 687.6 396.6 687.6 396.6 687.3 396.9 687.4 397.5L684.6 409.2 674.1 412.7 678.7 389.6C679.2 388.5 678.6 387.4 677.2 387.2 676.7 387.3 676.1 387.3 675.6 387.9 675.3 388.2 675.1 388.4 674.8 388.7L669.7 414 661.1 416.7 643.5 400.8 645.7 390.7 668.8 383.2C670.1 382.9 670.6 381.8 670 380.7 669.9 379.6 668.8 379.1 667.5 379.5L646.6 386.3 648.8 375.2 659.1 371.9C659.9 371.6 660.4 370.5 660.3 369.4 659.7 368.3 658.9 367.5 657.8 368.1L649.9 370.4 652.4 358.5C652.9 357.3 652 356.6 650.9 356.1 650.3 356.1 649.5 356.4 649 357 649 357 648.7 357.3 648.5 357.6L645.8 370.4 638.6 363.8C638 363.3 636.6 363.1 635.8 364 635.1 364.8 635.4 366.2 636 366.7L644.9 374.8 642.7 385.9 625.1 370C624.3 369.2 622.9 369.6 622.1 370.5S621.4 372.4 622.3 373.2L641.6 390.7 639.6 399.9 616.8 407.1 609.3 400.3 614.7 375.8C614.6 374.7 614 373.6 612.9 373.1 612.3 373.1 611.5 373.5 611 374 610.8 374.3 610.5 374.6 610.5 375.2L605.8 397.2 597.5 389.6 599.7 378.5C599.9 377.6 599.3 376.6 598.2 376.1 597.1 376.1 596 376.7 595.8 377.6L594 386.5 584.8 378.1C584.2 377.6 582.6 377.7 582 378.3 581.3 379.1 581.3 380.8 581.9 381.3L591.2 389.6 582.7 392C582.5 392.3 582.2 392.6 582 392.8 581.4 393.4 581.2 394.3 581.2 394.8 581.8 395.9 583 396.4 584.1 396.3L594.6 392.8 603 400.3 581.6 407.2C580.2 407.5 579.7 408.7 580 409.5 580.4 410.8 581.5 411.3 582.6 411.3L606.4 403.5 613.9 410.2 609.1 433.6 600.1 436.5 580.8 419.1C579.9 418.3 578.8 418.3 578 419.2 577.3 420.1 577.3 421.2 578.2 421.9L595.8 437.9 584.9 441.2 576 433.1C575.4 432.5 573.8 432.6 573 433.5 572.2 434.4 572.5 435.7 573.1 436.2L580.3 442.8 567.9 446.7C567.6 447 567.6 447 567.3 447.3 566.8 447.8 566.6 448.7 566.6 449.2 567.2 450.3 568.3 450.8 569.2 450.5ZM617.4 413.4L618.1 410.9 620.3 410.2 638.7 404.3 640.9 403.7 642.6 405.2 656.7 418 658.5 419.6 658 421.8 654 440.7 653.6 442.9 651.2 443.9 633 449.5 630.6 450.4 628.8 448.9 614.7 436.1 613 434.5 613.7 432 617.4 413.4Z" fill="rgba(51, 121, 194, 0.58)"></path><path d="M830.9 199.8L839.9 203.5 834.8 207.7C834.3 208.1 834.1 209 834.5 209.9 835.2 210.4 836.2 210.6 836.8 210.2L843.5 204.8 851.9 208.3 838.1 219.1C837.3 219.9 837.1 220.9 837.8 221.4 838.2 222.3 839.2 222.4 840 221.7L855.3 209.7 862.9 212.7 865.7 231.4 860.1 236 841 228.1C840.7 228.2 840.4 228.2 840.1 228.3 839.7 228.3 839.2 228.7 838.9 229.1 838.4 230.1 838.9 231 839.8 231.1L857.2 238.3 850.2 243.8 841.2 240.4C841.2 240.1 840.8 240.1 840.5 240.2 839.9 240.2 839.3 240.6 839.1 241.3 838.9 242 839.4 242.8 840.1 243.4L847.4 246.1 838.6 253C838.1 253.4 837.9 254.4 838.3 255.3 839 255.8 840 256 840.6 255.6L848.7 249 849.7 255.5C849.8 256.4 850.8 256.9 851.5 256.8 852.4 256.7 853.2 255.9 853.1 255L851.9 246.7 858.9 241.2 861.5 258.5C861.6 259.4 862.3 259.9 863.2 259.8 864.1 259.7 864.7 259 864.5 258L861.7 238.9 867.6 234 885.3 241.2 886.4 248.2 870.9 260.6C870 261 869.9 262.3 870.6 262.8 871 263.7 871.9 263.5 872.8 263.1L886.9 251.9 888.2 260.9 881.1 266.3C880.6 266.7 880.4 268 880.8 268.5S882.5 269.2 883.4 268.8L888.7 264.5 890.3 275.3C890.5 276.2 891.5 276.7 892.4 276.6 893 276.5 893.8 275.8 893.7 274.8L892.1 264.1 898.8 266.5C899.4 266.8 900.4 266.6 900.9 265.6 901.1 264.9 900.6 263.8 899.9 263.5L891.6 260.4 890.3 251.4 907 258.1C908 258.3 908.9 258.1 909.4 257.1 909.6 256.5 909.1 255.3 908.4 255.1L889.7 247.7 888.7 240.7 903.6 228.7 910.7 231.8 913.5 250.9C913.6 251.8 914.3 252.3 915.2 252.2 916.2 252 917 251.3 916.9 250.4L914.3 233.1 922.7 236.3 923.9 244.6C924 245.6 924.7 246.1 925.6 245.9 926.6 245.8 927.1 245.1 927 244.2L926 237.7 935.7 241.6C936.4 241.9 937.6 241.4 937.8 240.7 937.9 239.7 937.8 238.8 936.8 238.6L926.8 234.5 932.7 229.8C933.2 229.1 933.4 228.1 933 227.6 932.6 227 932 226.8 931.3 226.9 931.3 226.9 931 226.9 930.8 227.3L923.1 233.1 914.8 229.9 929.4 218C930.3 217.6 930.5 216.6 929.7 215.8 929.4 215.5 929 215.3 928.4 215.4 928.1 215.4 927.8 215.4 927.5 215.5L911.5 228.5 904.8 225.7 902 207 908.5 201.9 926.5 209C927.5 209.5 928.4 209.1 928.6 208.1 929.1 207.4 928.7 206.5 927.7 206L911.3 199.6 918.3 193.9 926.4 197.1C927 197.3 927.9 196.9 928.4 196.2 928.6 195.2 928.5 194.3 927.5 194.1L921.5 191.5 929.1 185.4C929.9 185 929.8 184 929.4 183.1 929 182.9 928.3 182.7 927.7 182.8 927.7 182.8 927.4 182.8 927.1 182.8L918.9 189.4 917.8 181.7C917.7 181.1 917 180.2 916.1 180.4 915.1 180.5 914.7 181.5 914.7 182.1L916.1 191.7 909.1 197.4 906.4 178.6C906.2 177.7 905.2 177.2 904.3 177.4S902.9 178.2 903 179.1L906 199.8 900.1 204.4 882.4 197.3 881.2 189.2 897 176.9C897.5 176.2 897.7 175.2 897.2 174.3 896.9 174.1 896.2 173.8 895.6 173.9 895.3 174 895 174 894.7 174.4L880.7 185.6 879.4 176.6 886.4 170.9C886.9 170.5 887.1 169.5 886.7 168.6 886 168.1 885 167.9 884.4 168.3L878.8 172.9 877.4 163.1C877.3 162.5 876.2 161.7 875.6 161.8 874.7 161.9 873.9 163 874 163.6L875.4 173.4 869 170.6C868.7 170.6 868.4 170.7 868.1 170.7 867.5 170.8 866.9 171.2 866.7 171.6 866.5 172.5 866.9 173.4 867.6 173.9L876 177.1 877.3 186 860.6 179.4C859.6 178.9 858.7 179.3 858.5 180 858 181 858.4 181.9 859.1 182.4L877.8 189.7 879 197.7 864.1 209.7 857.1 206.9 854 186.3C853.9 185.4 853.2 184.9 852.3 185 851.4 185.1 850.8 185.8 851 186.8L853.7 205.5 845.3 202 843.9 192.5C843.9 191.9 842.8 191.1 841.9 191.2 840.9 191.4 840.5 192.4 840.6 193L841.7 200.7 832 196.8C831.7 196.8 831.7 196.8 831.4 196.8 830.8 196.9 830.2 197.3 829.9 197.7 829.7 198.7 830.2 199.5 830.9 199.8ZM879.5 201.4L881.2 200.2 882.9 200.9 897.3 206.7 898.9 207.4 899.2 209.3 901.4 224.3 901.7 226.2 900.3 227.3 888.2 237 886.8 238.1 884.8 237.5 870.7 231.7 868.8 231 868.5 229.2 866.3 214.1 866 212.2 867.7 211 879.5 201.4Z" fill="rgba(51, 121, 194, 0.58)"></path><path d="M1177.7 119.3L1189.7 96.6 1196.5 94.3 1208.2 105 1206.7 112.1 1184.8 125.8C1184.6 126.1 1184.6 126.1 1184.4 126.3 1184 126.7 1183.8 127.4 1184.3 128.3 1184.9 128.9 1185.6 129.1 1186.5 128.6L1205.6 116.6 1203.2 127.5 1194.8 132.9C1194.8 132.9 1194.6 133.1 1194.6 133.1 1194.2 133.6 1194 134.2 1194.5 135.1 1194.7 135.8 1195.8 135.9 1196.7 135.5L1202.3 132.1 1200.4 140.1C1200.2 140.8 1200.7 141.7 1201.6 142.1S1203.3 141.6 1203.7 140.7L1205.4 132.9 1208.9 138.2C1209.4 139.1 1210.5 139.3 1211.3 138.8 1211.8 138.3 1212.2 137.4 1211.7 136.6L1206.3 128.2 1208.9 117.1 1220.9 136.2C1221.4 137.1 1222.5 137.2 1223.2 137 1223.8 136.3 1224.2 135.4 1223.7 134.5L1209.8 112.9 1211.5 105.5 1226.3 101 1231.8 106 1233.1 131.7C1233.1 132.6 1233.8 133.2 1234.7 133.2S1236.2 132.5 1236.1 131.6L1235 109 1243.4 116.8 1243.8 126.4C1243.9 127.3 1244.6 127.9 1245.7 128.1S1247.2 127.4 1247.2 126.5L1246.6 119.7 1252.8 125.4C1253.5 126 1254.6 125.8 1255.2 125.1 1255.9 124.4 1255.8 123.5 1255.1 122.9L1249 117.2 1255.6 116.9C1256.7 117.1 1257.3 116.4 1257 115.3 1257 114.4 1256.3 113.8 1255.4 113.8L1245.8 114.2 1237.3 106.4 1259.9 105.7C1260.8 105.7 1261.7 104.8 1261.6 103.9S1260.9 102.4 1260 102.4L1234.1 103.5 1228.6 98.4 1232.1 83.1 1239.1 81 1261.8 93.1C1262.7 93.5 1263.6 93 1264.2 92.3 1264.6 91.4 1264.1 90.6 1263.4 89.9L1243.4 79.5 1254.1 76.2 1262.9 80.9C1263.7 81.3 1264.6 80.9 1265.2 80.2 1265.4 79.5 1265.2 78.4 1264.3 78L1258.6 74.9 1266.5 72.4C1267.1 72.2 1267.5 71.3 1267.5 70.4 1267 69.5 1266.1 69.1 1265.4 69.4L1257.6 71.9 1260.7 65.8C1260.9 65.2 1260.6 64.1 1259.9 63.9 1259.2 63.2 1258.6 63.5 1258 64.2 1258 64.2 1257.8 64.4 1257.8 64.4L1253.1 73.2 1242.4 76.5 1252.8 56.5C1253.2 55.6 1253.2 54.7 1252.3 54.3 1251.4 53.9 1250.7 54.1 1250.3 54.6 1250.1 54.8 1250.1 54.8 1250.1 54.8L1238.1 78 1231.1 80.1 1219.4 69.3 1221.1 62.4 1243 48.3C1243.6 48 1243.8 46.9 1243.6 46.3 1243.1 45.4 1242 45.3 1241.1 45.7L1222 57.8 1224.4 46.9 1232.8 41.5C1233.6 41 1234 40.1 1233.4 39.5 1232.9 38.6 1231.8 38.4 1231.1 38.7L1225.6 42.4 1227.4 34.4C1227.4 33.5 1226.9 32.7 1226 32.3 1225.6 32.3 1224.9 32.5 1224.5 33 1224.3 33.2 1224.3 33.2 1224.3 33.7L1222.4 41.7 1218.7 36.1C1218.2 35.2 1217.3 35.3 1216.7 35.5 1216.5 35.8 1216.5 35.8 1216.3 36 1215.8 36.4 1215.6 37.1 1215.9 37.8L1221.3 46.1 1218.9 57 1206.9 37.9C1206.2 37.3 1205.3 36.9 1204.7 37.6 1204.2 37.6 1204.2 37.6 1204 37.8 1203.6 38.3 1203.6 39.2 1203.9 39.8L1218 61.7 1216.3 68.6 1201.3 73.4 1196.1 68.5 1195 42.6C1194.9 41.7 1194 40.9 1193.1 40.9S1191.4 41.9 1191.4 42.8L1192.6 65.4 1184.4 57.8 1183.7 47.9C1183.7 47 1183 46.4 1182.1 46.5 1181.3 46.5 1180.6 47.2 1180.7 48.1L1180.9 54.7 1174.8 49C1174.3 48.5 1173.2 48.4 1172.6 49.1 1171.9 49.7 1172 51.1 1172.4 51.5L1178.6 57.2 1172 57.4C1171.6 57.5 1171.1 57.5 1170.9 57.7 1170.5 58.2 1170.5 58.6 1170.6 59.1 1170.6 59.9 1171.3 60.6 1172.2 60.5L1182.1 60.3 1190.3 67.9 1167.7 68.6C1167.2 68.7 1167 68.9 1166.6 69.3 1166.4 69.6 1166.2 69.8 1166.2 70.2 1166.2 71.1 1167.1 72 1168 71.9L1193.7 71.1 1199 75.9 1195.7 91 1188.7 93.5 1165.8 81.3C1165.1 81.1 1164.2 81.1 1163.8 81.6 1163.6 81.8 1163.6 81.8 1163.8 82 1163.2 82.7 1163.4 83.8 1164.3 84.2L1184.4 94.6 1173.5 98.1 1164.7 93.4C1164.1 93.2 1163.4 93.5 1163 93.9 1163 93.9 1162.8 94.2 1162.8 94.2 1162.2 94.9 1162.4 95.9 1163.3 96.3L1169.4 99.4 1161.6 101.9C1161.1 101.9 1160.9 102.2 1160.7 102.4 1160.3 102.9 1160.1 103.5 1160.3 103.7 1160.6 104.8 1161.5 105.2 1162.4 105.2L1170.2 102.7 1167.1 108.3C1166.7 109.2 1167 110.3 1167.9 110.7 1168.6 110.9 1169.6 110.6 1169.8 109.9L1174.5 101.2 1185.2 97.8 1174.8 117.9C1174.4 118.8 1174.9 119.6 1175.6 120.3 1176.2 120.5 1177.3 120.2 1177.7 119.3ZM1209.1 101.2L1200.2 93 1198.8 91.8 1199.2 90 1201.8 78.4 1202.3 76.4 1204.1 75.9 1215.4 72.4 1217.1 71.8 1218.5 73.1 1227.4 81.3 1228.8 82.6 1228.4 84.4 1225.8 95.9 1225.5 97.7 1223.5 98.4 1212.2 102 1210.5 102.5 1209.1 101.2Z" fill="rgba(51, 121, 194, 0.58)"></path><path d="M117.3 94.2L149.6 94.5 169.6 115.2 141.7 122.2 114.1 105.4C114.1 105.4 113.7 105.3 113.7 105.3 113 105.1 112 105.6 111.4 106.2 110.7 107.3 111.2 108.6 112.3 108.9L136.4 123.5 122.9 126.9 112.2 120.6C112.2 120.6 111.8 120.5 111.8 120.5 111.1 120.3 110.1 120.8 109.5 121.5 108.8 122.5 109.3 123.8 110.4 124.1L117.6 128.6 107.6 131C106.7 131.2 105.9 132.6 106.1 133.4 106.2 134.7 107.6 135.1 108.5 134.9L118.5 132.5 114 139.7C113.3 140.8 113.7 142.1 114.9 142.4 115.9 143.1 117.2 142.7 117.5 141.6L123.8 130.8 137.2 127.8 122.7 151.9C122 152.9 122.4 154.3 123.5 154.6 124.5 155.3 125.9 154.9 126.2 153.7L143 126.2 170.8 119.2 162.8 147.2 134.5 163C133.5 163.5 133.2 164.6 133.7 165.6 134.3 166.6 135.4 166.9 136.3 166.3L161.3 152.4 157.5 165.9 146.9 171.8C146 172.3 145.6 173.4 146.2 174.4 146.7 175.4 147.8 175.7 148.8 175.2L156 171.1 153 181.6C152.3 182.6 153.2 183.7 154.3 184 155.5 184.3 156.4 183.8 156.7 182.7L159.5 173 163.5 180.2C164.1 181.1 165.2 181.5 166.1 180.9S167.4 179.3 166.9 178.3L161 167.7 164.9 154.3 178.8 179.3C179.3 180.2 180.4 180.5 181.4 180 182.3 179.5 182.7 178.4 182.1 177.4L166.4 149 174.3 121.4 194.2 142 193.8 173.4C193.8 174.7 194.8 175.4 196 175.7 197.2 175.6 197.9 174.6 198.2 173.5L198.6 145.3 208.2 155.3 207.9 167.8C208 169 209 169.7 210.1 170 211.3 170 212 168.9 212.2 168.2L212.2 159.7 219.5 167C220.1 167.6 221.6 168 222.3 167 223 166 223.3 164.9 222.3 164.2L215.1 156.9 223.6 156.9C224.8 156.8 225.5 155.8 225.7 155.1 225.5 154.2 225 153.2 224.3 153 224.3 153 223.9 152.9 223.9 152.9L211.4 152.6 201.8 142.6 230 142.9C231.2 142.9 231.9 141.9 232.1 141.1 232 140.3 231.4 139.3 230.7 139.1 230.7 139.1 230.3 139 230.3 139L198 138.7 178.1 118 205.9 111 233.5 127.8C234.5 128.5 235.9 128 236.2 126.9 236.9 125.9 236.4 124.6 235.3 124.2L211.2 109.7 224.7 106.2 235.4 112.5C236.4 113.2 237.8 112.8 238.1 111.7 238.8 110.7 238.4 109.3 237.2 109L230 104.5 240 102.1C240.9 102 241.7 100.6 241.5 99.7 241.4 98.9 240.7 98.3 240 98.1 239.6 98 239.2 97.8 238.7 98.1L228.7 100.5 233.2 93.3C233.9 92.3 233.5 91 232.4 90.6 232.4 90.6 232 90.5 232 90.5 231.3 90.3 230.3 90.9 229.7 91.5L223.4 102.2 209.9 105.6 224.5 81.5C225.2 80.5 224.7 79.2 223.6 78.8 223.6 78.8 223.2 78.7 223.2 78.7 222.5 78.5 221.5 79 220.9 79.7L204.2 107.3 176.3 114.3 184.2 86.6 212.6 70.8C213.5 70.3 213.8 69.2 213.3 68.2 212.8 67.2 211.6 66.9 210.7 67.5L185.8 81 189.6 67.5 200.2 61.6C201.2 61.1 201.5 60 201 59S199.3 57.7 198.3 58.3L191.1 62.3 193.9 52.6C194.2 51.4 193.7 50.5 192.6 50.1 191.5 49.8 190.5 50.4 190.2 51.5L187.4 61.2 183.4 54C183.1 53.5 182.9 53 182.1 52.8S180.9 52.9 180.4 53.1C179.4 53.7 179.1 54.8 179.6 55.8L185.5 66.3 181.7 79.8 167.8 54.8C167.5 54.3 167.3 53.8 166.5 53.6 166.1 53.5 165.3 53.7 164.8 53.9 163.8 54.5 163.5 55.6 164.1 56.6L179.8 84.9 171.9 112.6 151.9 91.9 152.2 59.7C152.1 58.8 151.6 57.8 150.8 57.6 150.8 57.6 150.4 57.5 150.4 57.5 149.2 57.6 148.5 58.6 148.3 59.3L147.9 87.5 138.3 77.5 138.6 65.1C138.4 64.2 137.9 63.2 137.1 63 137.1 63 136.8 62.9 136.8 62.9 135.5 63 134.8 64 134.6 64.7L134.6 73.2 127.4 65.9C127 65.8 126.8 65.3 126.4 65.2 125.6 65 124.8 65.2 124.2 65.8 123.5 66.8 123.2 67.9 124.2 68.6L131.4 76 122.9 76C121.7 76 121 77 120.8 77.8 120.8 79 121.9 79.7 122.6 79.9L135 80.2 144.7 90.3 116.5 89.9C115.3 90 114.6 91 114.4 91.7 115.2 93.2 116.1 94.2 117.3 94.2Z" fill="rgba(51, 121, 194, 0.58)"></path><path d="M1389.5 320.3L1372.3 355 1339.5 365.8 1346.5 332 1379.1 311C1379.1 311 1379.4 310.7 1379.4 310.7 1380 310 1379.9 308.7 1379.5 307.7 1378.8 306.4 1377.1 306.2 1376.2 307.2L1347.8 325.6 1351.2 309.3 1363.6 301C1363.6 301 1363.9 300.6 1363.9 300.6 1364.6 299.9 1364.5 298.6 1364.1 297.6 1363.4 296.4 1361.7 296.1 1360.8 297.2L1352.2 302.6 1354.8 290.6C1355.1 289.5 1354 288 1353 287.7 1351.6 287.1 1350.4 288.5 1350.1 289.5L1347.5 301.5 1342 292.9C1341.3 291.6 1339.6 291.4 1338.7 292.4 1337.4 293.2 1337.2 294.8 1338.2 295.8L1346.5 308.2 1342.8 324.3 1324.4 295.9C1323.6 294.6 1322 294.4 1321 295.4 1319.7 296.1 1319.5 297.8 1320.5 298.7L1341.5 331.3 1334.5 365.1 1308.4 341.7 1306.2 302.8C1306.2 301.5 1305.1 300.6 1303.8 300.7 1302.5 300.7 1301.5 301.8 1301.6 303.1L1303.5 337.4 1291 326.2 1290.2 311.7C1290.1 310.4 1289.1 309.4 1287.8 309.5 1286.4 309.6 1285.5 310.6 1285.6 311.9L1286.1 321.8 1276.4 313.1C1275.7 311.8 1274 312.2 1273.1 313.3 1272.2 314.3 1272.2 315.6 1273.3 316.6L1282.3 324.7 1272.4 325.2C1271.1 325.3 1270.2 326.3 1270.3 327.7S1271.4 329.9 1272.7 329.8L1287.2 329 1299.7 340.2 1265.5 342.1C1264.1 342.2 1263.2 343.3 1263.3 344.6 1263.4 345.9 1264.4 346.8 1265.7 346.7L1304.6 344.6 1330.3 367.6 1297.6 378.4 1263.9 361.4C1262.5 360.8 1261.3 361.5 1260.3 362.6 1259.7 363.9 1260.5 365.2 1261.5 366.1L1291.8 381.3 1275.9 386.5 1262.6 379.6C1261.2 379.1 1260 379.8 1259 380.8 1258.4 382.2 1259.2 383.5 1259.9 384.1L1269 388.5 1257.4 392.5C1256.4 392.9 1255.1 394.3 1255.9 395.5 1256.6 396.8 1257.7 397.8 1258.9 397L1270.6 393.1 1266.2 402.2C1265.6 403.6 1266.3 404.9 1267 405.5 1268 405.8 1269.3 405.7 1270 405 1270 405 1270.3 404.7 1270.3 404.7L1277.1 391.4 1293 386.2 1277.9 416.5C1277.3 417.8 1278 419.1 1278.7 419.7 1279.7 420 1281 419.9 1281.7 419.2 1281.7 419.2 1282 418.9 1282 418.9L1299.2 384.2 1332 373.5 1324.9 407.2 1292.4 428.2C1291.1 428.9 1290.9 430.6 1291.9 431.5 1292.7 432.8 1294.3 433.1 1295.3 432L1323.6 413.6 1320.3 430 1307.8 438.3C1306.6 439 1306.3 440.7 1307.4 441.6 1308.1 442.9 1309.8 443.1 1310.7 442.1L1319.3 436.6 1316.7 448.7C1316.4 449.7 1317.5 451.3 1318.5 451.5 1319.5 451.8 1320.5 451.4 1321.1 450.7 1321.4 450.4 1321.7 450 1321.7 449.4L1324.3 437.3 1329.7 446C1330.5 447.2 1332.1 447.5 1333.1 446.4 1333.1 446.4 1333.4 446.1 1333.4 446.1 1334 445.4 1333.9 444.1 1333.6 443.1L1325.3 430.7 1328.6 414.3 1347.1 442.7C1347.8 444 1349.5 444.2 1350.4 443.2 1350.4 443.2 1350.7 442.8 1350.7 442.8 1351.3 442.1 1351.3 440.8 1350.9 439.8L1329.9 407.3 1336.9 373.5 1362.7 396.5 1364.9 435.4C1364.9 436.7 1366 437.7 1367.3 437.6 1368.6 437.5 1369.5 436.5 1369.5 435.2L1367.9 401.2 1380.4 412.4 1381.2 426.9C1381.3 428.2 1382.3 429.1 1383.7 429.1S1385.9 428 1385.8 426.6L1385.3 416.8 1394.3 424.8C1395.4 425.8 1396.7 425.7 1397.6 424.7 1398.6 423.6 1398.5 422.3 1397.4 421.4L1388.4 413.3 1398.3 412.7C1398.9 412.7 1399.6 412.7 1400.2 412S1400.8 410.6 1400.8 409.9C1400.7 408.6 1399.7 407.7 1398.3 407.8L1383.8 408.6 1371.3 397.4 1405.6 395.5C1406.2 395.4 1406.9 395.4 1407.5 394.7 1407.8 394.3 1408.1 393.3 1408.1 392.7 1408 391.4 1407 390.4 1405.6 390.5L1366.8 392.7 1341 369.7 1373.8 358.9 1408.5 376.1C1409.5 376.4 1410.8 376.3 1411.4 375.6 1411.4 375.6 1411.7 375.3 1411.7 375.3 1412.3 373.9 1411.6 372.7 1410.9 372L1380.6 356.9 1396.5 351.7 1409.8 358.5C1410.8 358.8 1412.1 358.7 1412.8 358.1 1412.8 358.1 1413.1 357.7 1413.1 357.7 1413.7 356.3 1412.9 355.1 1412.2 354.4L1403.1 350 1414.7 346C1415 345.7 1415.7 345.7 1416 345.3 1416.6 344.6 1416.9 343.6 1416.5 342.6 1415.8 341.4 1414.7 340.4 1413.5 341.2L1401.8 345.1 1406.2 335.9C1406.8 334.6 1406.1 333.3 1405.4 332.7 1404 332.1 1402.8 332.8 1402.1 333.5L1395.3 346.8 1379.4 352 1394.5 321.7C1395.1 320.4 1394.4 319.1 1393.7 318.5 1391.7 318.6 1390.1 319 1389.5 320.3Z" fill="rgba(51, 121, 194, 0.58)"></path><path d="M682.1 219.4L687.4 206.9 692.6 213.2C693.1 213.9 694.3 214.1 695.4 213.6 696 212.7 696.3 211.5 695.4 210.8L689.1 202.7 692.8 192.7 705.8 209.7C706.7 210.4 707.9 210.6 708.6 210.1 709.7 209.2 709.9 208 709 207.3L694.6 188.6 700.7 173.5 710.4 189.4 715.3 171.5 725.4 184.2 716.7 206.2C716.3 206.3 716.4 206.7 716.4 207.1 716.6 207.8 717.1 208.5 717.9 208.8 718.7 209.1 719.8 208.5 720.5 207.7L728.2 187.7 734.5 196.2 730.8 205.8C730.5 206.2 730.5 206.6 730.6 207 730.6 207.4 731.1 208.1 732 208.4 732.8 208.7 733.9 208.1 734.2 207.3L737.4 199.8 746 210.3C746.5 211.4 747.7 211.3 748.8 210.7 749.5 210.2 749.7 209 748.8 208L740.6 197.3 748.7 196.2C749.8 196 750.4 194.8 750.3 194 750.2 192.8 749.3 192.2 748.1 192.3L737.7 193.8 731.4 185.3 752.2 182.3C753.4 182.2 754 181.3 753.9 180.1 753.8 179.4 752.8 178.3 751.7 178.5L728.6 181.8 718.5 169 736.9 168.4 724 155.3 740.2 153 754.6 171.4C755.5 172.4 756.7 172.3 757.4 171.8 758.1 171.3 758.3 170.1 757.8 169L744.4 152.4 754.8 150.9 761.5 159C762 160.1 763.2 160.3 764.3 159.4 765 158.9 765.2 157.7 764.3 156.7L759.4 150.3 772.9 148.4C774.1 148.2 774.7 147.3 774.6 146.2S773.5 144.3 772.4 144.5L758.9 146.4 761.8 138.9C762.4 137.7 761.8 136.6 761 136.3 759.7 135.7 758.6 136.2 758.4 137.5L754.3 147.1 743.9 148.6 752.1 128.9C752.3 127.7 751.8 126.6 750.9 126.3 749.7 125.7 748.6 126.3 748.3 127.5L739.6 149.2 723.5 151.5 732.2 135.3 714.3 139.8 720.5 124.8 743.6 121.5C744.7 121.3 745.3 120.1 745.2 119.3 745.1 118.1 744.2 117.5 743 117.6L721.8 120.7 725.9 110.6 736.3 109.2C737.5 109 738.1 108.1 738 107 737.9 106.2 736.9 105.2 735.8 105.3L727.7 106.5 732.6 94C733.2 92.7 732.6 91.6 731.4 91.4 730.6 91.1 729.5 91.3 729.2 92.5L723.9 105 718.7 98.7C718.2 98 717 97.8 716.3 98.3 715.6 98.8 715.3 99.6 715.4 100 715.4 100.4 715.5 100.7 715.9 101.1L722.2 109.2 718.5 119.2 705.5 102.2C704.6 101.5 703.4 101.3 702.7 101.8 701.9 102.3 701.7 103.1 701.8 103.9 701.8 104.3 701.8 104.3 702.3 104.6L716.7 123.3 710.6 138.4 700.9 122.5 696 140.4 685.9 127.7 694.6 105.7C694.8 104.9 694.7 103.7 693.4 103.1 692.6 102.8 691.5 103.4 690.8 104.2L683.1 124.2 676.7 115.7 680.5 106.1C681.2 105.2 680.6 104.1 679.3 103.5 678.5 103.2 677.4 103.8 676.8 104.7L673.9 112.2 665.3 101.6C664.8 100.5 663.6 100.6 662.5 101.2 662.2 101.6 661.9 102.5 662 102.8 662 103.2 662.1 103.6 662.5 103.9L670.7 114.6 662.6 115.7C661.5 115.9 660.9 117.1 661 117.9L661 117.9C661.1 119.1 662 119.7 663.2 119.6L673.6 118.1 679.9 126.6 659.1 129.6C657.9 129.7 657.3 130.6 657.4 131.8S658.5 133.6 659.6 133.4L682.7 130.1 692.8 142.9 674.4 143.5 687.3 156.6 671.1 158.9 656.7 140.5C655.8 139.5 654.6 139.6 653.9 140.1 653.2 140.6 653 141.8 653.5 142.9L666.5 159.6 656.5 161 649.8 152.9C649.3 151.8 648.1 151.6 647 152.5 646.3 153 646.1 154.2 646.6 155.3L651.9 161.6 638.4 163.5C637.2 163.7 636.6 164.6 636.7 165.7S637.8 167.6 638.9 167.4L652.4 165.5 649.5 173C649.2 173.4 649.3 173.8 649.3 174.2 649.4 174.9 649.9 175.3 650.3 175.6 651.6 176.2 652.7 175.7 652.9 174.4L657 164.8 667.4 163.3 659.2 183C659.3 183.4 659.3 183.7 659.4 184.1 659.5 184.9 659.9 185.2 660.4 185.6 661.6 186.2 662.7 185.6 663 184.4L671.7 162.7 687.8 160.4 679.1 176.6 696.9 172.1 690.8 187.1 667.7 190.4C666.6 190.6 666 191.8 666.1 192.6 666.2 193.8 667.1 194.4 668.3 194.3L689.1 191.3 685.4 201.3 675 202.7C673.8 202.9 673.2 203.8 673.3 204.9S674.4 206.7 675.5 206.6L683.6 205.4 678.7 217.9C678.4 218.4 678.4 218.7 678.5 219.1 678.5 219.5 679 220.2 679.9 220.5 680.7 220.8 681.8 220.6 682.1 219.4ZM686.6 170.8L693.7 157.6 683.2 147 698.4 146.4 702.3 132.1 710.3 144.7 724.7 141.1 717.6 154.3 728.1 164.9 713.3 165.5 709 179.8 701.4 167.2 686.6 170.8Z" fill="rgba(51, 121, 194, 0.58)"></path><path d="M269.2 479.2L267.6 504.9 262.4 509.7 247.4 504.8 245.8 497.7 260.1 476.2C260.1 475.9 260.1 475.9 260.2 475.6 260.4 475 260.3 474.3 259.6 473.7 258.7 473.4 258 473.5 257.4 474.3L245 493.2 242.7 482.3 248 473.9C248 473.9 248.1 473.6 248.1 473.6 248.3 473 248.2 472.3 247.4 471.7 246.9 471.2 245.9 471.5 245.3 472.3L241.6 477.6 240 469.6C239.9 468.9 239.1 468.3 238.1 468.3S236.7 469.5 236.7 470.5L238.4 478.2 233 474.8C232.2 474.2 231.1 474.5 230.5 475.3 230.3 475.9 230.3 476.9 231.1 477.5L239.5 482.9 241.7 494.1 222.9 481.6C222.1 481.1 221 481.4 220.5 481.8 220.2 482.7 220.2 483.7 221 484.3L242.6 498.3 244.1 505.7 232.5 515.9 225.5 513.6 213.7 490.7C213.3 489.9 212.4 489.6 211.6 490S210.5 491.3 210.9 492.1L221.3 512.2 210.4 508.6 206 500C205.6 499.2 204.7 498.9 203.7 499.2S202.6 500.5 203 501.3L206.2 507.3 198.3 504.7C197.4 504.4 196.5 505.1 196.2 505.9 195.9 506.8 196.3 507.6 197.2 507.9L205.2 510.5 199.3 513.5C198.2 513.8 197.9 514.7 198.6 515.6 199 516.4 199.9 516.6 200.7 516.3L209.3 511.9 220.2 515.5 199.9 525.5C199.1 525.9 198.7 527.1 199.1 527.9S200.4 528.9 201.2 528.5L224.4 516.9 231.5 519.2 234.6 534.6 229.1 539.4 203.4 537.8C202.4 537.8 201.8 538.6 201.5 539.5 201.5 540.5 202.3 541 203.2 541.3L225.8 542.5 217.4 549.9 207.5 549.3C206.5 549.3 205.9 550.1 205.6 551 205.7 551.7 206.4 552.5 207.4 552.5L213.8 553 207.7 558.5C207.2 559 207.2 560 207.6 560.8 208.4 561.4 209.4 561.4 209.9 560.9L216 555.4 215.7 562.1C215.8 562.8 216.5 563.7 217.2 563.6 218.1 563.9 218.6 563.4 218.8 562.5 218.8 562.5 218.9 562.2 218.9 562.2L219.6 552.3 227.9 544.9 226.7 567.4C226.7 568.4 227.1 569.2 228.1 569.2 229.1 569.2 229.6 568.7 229.8 568.1 229.9 567.8 229.9 567.8 229.9 567.8L231.3 541.7 236.8 537 251.8 541.9 253.1 548.9 239 570.8C238.6 571.3 238.9 572.4 239.3 572.9 240.1 573.5 241.2 573.2 241.8 572.4L254.2 553.5 256.5 564.5 251.1 572.8C250.6 573.6 250.6 574.6 251.5 574.9 252.2 575.5 253.3 575.2 253.8 574.7L257.3 569 258.9 577C259.3 577.8 260.1 578.4 261.1 578.4 261.5 578.2 262 577.7 262.2 577.1 262.3 576.8 262.3 576.8 262.1 576.4L260.5 568.4 266.2 571.9C267 572.5 267.8 572.1 268.3 571.6 268.4 571.3 268.4 571.3 268.5 571 268.7 570.4 268.6 569.7 268.1 569.2L259.7 563.9 257.4 552.9 276.2 565.4C277.1 565.7 278.1 565.7 278.4 564.8 278.8 564.6 278.8 564.6 278.9 564.3 279.1 563.7 278.7 562.9 278.2 562.4L256.3 548.3 255 541.3 266.6 530.8 273.4 533 285.1 556.2C285.5 557 286.7 557.4 287.5 557S288.7 555.4 288.3 554.6L277.9 534.5 288.5 538 293.2 546.7C293.6 547.5 294.4 547.8 295.2 547.4 296 547 296.3 546.1 295.9 545.3L292.9 539.4 300.9 542.1C301.5 542.3 302.6 542 302.9 541.1 303.2 540.2 302.6 539 302 538.8L294 536.2 299.9 533.2C300.3 533 300.7 532.8 300.8 532.5 301 531.9 300.8 531.5 300.6 531.1 300.2 530.4 299.3 530.1 298.5 530.5L289.6 534.7 278.9 531.2 299.3 521.2C299.7 521 299.8 520.7 300 520.1 300.1 519.8 300.2 519.5 300 519.1 299.6 518.4 298.4 518 297.6 518.4L274.5 529.8 267.7 527.5 264.5 512.4 269.8 507.2 295.8 508.9C296.5 508.8 297.3 508.4 297.5 507.8 297.5 507.5 297.5 507.5 297.3 507.4 297.5 506.6 296.9 505.7 295.9 505.7L273.3 504.5 281.8 496.8 291.7 497.4C292.4 497.3 292.9 496.8 293.1 496.2 293.1 496.2 293.2 495.9 293.2 495.9 293.5 495.1 292.8 494.2 291.8 494.2L285 493.9 291.1 488.4C291.5 488.2 291.6 487.9 291.7 487.6 291.9 487 291.8 486.3 291.5 486.2 290.8 485.3 289.8 485.3 289 485.7L282.9 491.3 283.4 484.9C283.4 483.9 282.7 483 281.7 483 281 483.1 280.1 483.8 280.3 484.5L279.6 494.4 271.3 501.8 272.5 479.3C272.5 478.3 271.7 477.7 270.8 477.4 270.1 477.5 269.2 478.2 269.2 479.2ZM248.1 508.6L259.6 512.4 261.4 513 261.8 514.8 264.2 526.4 264.5 528.4 263.1 529.6 254.3 537.5 252.9 538.7 251.1 538.1 239.6 534.3 237.8 533.7 237.4 532 235 520.4 234.6 518.6 236.1 517.1 244.9 509.2 246.3 508 248.1 508.6Z" fill="rgba(51, 121, 194, 0.58)"></path></g><defs><mask id="SvgjsMask1010"><rect width="1400" height="560" fill="#ffffff"></rect></mask><filter id="SvgjsFilter1011"><feGaussianBlur stdDeviation="1"></feGaussianBlur></filter></defs></svg>